<?xml version="1.0" standalone="no"?><!DOCTYPE svg PUBLIC "-//W3C//DTD SVG 1.1//EN" "http://www.w3.org/Graphics/SVG/1.1/DTD/svg11.dtd"><svg t="1523328822012" class="icon" style="" viewBox="0 0 1024 1024" version="1.1" xmlns="http://www.w3.org/2000/svg" p-id="18014" xmlns:xlink="http://www.w3.org/1999/xlink" width="32" height="32"><defs><style type="text/css"></style></defs><path d="M918.756 964.276H105.244C47.212 964.276 0 917.064 0 859.032V338.642c0-58.032 47.212-105.244 105.244-105.244h150.752v-103.98c0-38.432 31.266-69.694 69.694-69.694h372.614c38.432 0 69.694 31.266 69.694 69.694 0 15.71-12.734 28.444-28.444 28.444-15.71 0-28.444-12.734-28.444-28.444a12.82 12.82 0 0 0-12.806-12.806H325.692a12.822 12.822 0 0 0-12.806 12.806v132.424c0 15.71-12.734 28.444-28.444 28.444H105.244c-26.664 0-48.356 21.692-48.356 48.356v520.392c0 26.664 21.692 48.356 48.356 48.356h813.512c26.664 0 48.356-21.692 48.356-48.356V574.584c0-15.71 12.734-28.444 28.444-28.444S1024 558.876 1024 574.584v284.448c0 58.032-47.212 105.244-105.244 105.244z" fill="#2D527C" p-id="18015"></path><path d="M995.556 432.368c-15.71 0-28.444-12.734-28.444-28.444v-65.286c0-26.664-21.692-48.356-48.356-48.356h-179.198c-15.71 0-28.444-12.734-28.444-28.444s12.734-28.444 28.444-28.444h179.198c58.032 0 105.244 47.212 105.244 105.244v65.286c0 15.71-12.734 28.444-28.444 28.444z" fill="#2D527C" p-id="18016"></path><path d="M384 187.72h256v113.806H384z" fill="#CEE8FA" p-id="18017"></path><path d="M640.002 329.974H383.998c-15.71 0-28.444-12.734-28.444-28.444V187.72c0-15.71 12.734-28.444 28.444-28.444h256.006c15.71 0 28.444 12.734 28.444 28.444v113.812c0 15.708-12.736 28.442-28.446 28.442z m-227.56-56.888h199.116v-56.92h-199.116v56.92z" fill="#2D527C" p-id="18018"></path><path d="M512 691.198m-238.922 0a238.922 238.922 0 1 0 477.844 0 238.922 238.922 0 1 0-477.844 0Z" fill="#CEE8FA" p-id="18019"></path><path d="M512 958.576c-147.428 0-267.37-119.942-267.37-267.37S364.572 423.84 512 423.84s267.37 119.942 267.37 267.366c0 147.428-119.942 267.37-267.37 267.37z m0-477.846c-116.06 0-210.48 94.418-210.48 210.478s94.42 210.48 210.48 210.48 210.48-94.422 210.48-210.48S628.06 480.73 512 480.73zM216.88 435.204H32c-15.71 0-28.444-12.734-28.444-28.444 0-15.71 12.734-28.444 28.444-28.444h184.88c15.71 0 28.444 12.734 28.444 28.444 0 15.71-12.734 28.444-28.444 28.444zM992 435.204h-184.88c-15.71 0-28.444-12.734-28.444-28.444 0-15.71 12.734-28.444 28.444-28.444H992c15.71 0 28.444 12.734 28.444 28.444 0 15.71-12.734 28.444-28.444 28.444z" fill="#2D527C" p-id="18020"></path></svg>
