<?xml version="1.0" standalone="no"?><!DOCTYPE svg PUBLIC "-//W3C//DTD SVG 1.1//EN" "http://www.w3.org/Graphics/SVG/1.1/DTD/svg11.dtd"><svg t="1523349691858" class="icon" style="" viewBox="0 0 1024 1024" version="1.1" xmlns="http://www.w3.org/2000/svg" p-id="1972" xmlns:xlink="http://www.w3.org/1999/xlink" width="20" height="20"><defs><style type="text/css"></style></defs><path d="M561.83 1024H216.922c-15.608 0-28.258-12.652-28.258-28.258V224.098c0-15.608 12.652-28.258 28.258-28.258s28.258 12.652 28.258 28.258v743.386h316.648c15.608 0 28.258 12.652 28.258 28.258S577.436 1024 561.83 1024zM807.078 1024h-99.706c-15.608 0-28.258-12.652-28.258-28.258s12.652-28.258 28.258-28.258h71.448V531.796c0-15.608 12.652-28.258 28.258-28.258s28.258 12.652 28.258 28.258v463.946c0 15.606-12.652 28.258-28.258 28.258z" fill="#2D527C" p-id="1973"></path><path d="M316.604 992.82h-99.658V505.736c0-27.52 22.31-49.828 49.828-49.828 27.52 0 49.828 22.31 49.828 49.828V992.82h0.002z" fill="#CEE8FA" p-id="1974"></path><path d="M316.604 1021.078h-99.658c-15.608 0-28.258-12.652-28.258-28.258V505.736c0-43.058 35.03-78.086 78.086-78.086s78.086 35.03 78.086 78.086V992.82c0.002 15.606-12.65 28.258-28.256 28.258z m-71.4-56.516h43.14V505.736c0-11.894-9.676-21.57-21.57-21.57s-21.57 9.676-21.57 21.57v458.826z" fill="#2D527C" p-id="1975"></path><path d="M561.854 992.82h-99.656V505.736c0-27.52 22.31-49.828 49.828-49.828 27.52 0 49.828 22.31 49.828 49.828V992.82z" fill="#CEE8FA" p-id="1976"></path><path d="M561.854 1021.078h-99.658c-15.608 0-28.258-12.652-28.258-28.258V505.736c0-43.058 35.028-78.086 78.086-78.086s78.086 35.03 78.086 78.086V992.82c0.004 15.606-12.648 28.258-28.256 28.258z m-71.4-56.516h43.142V505.736c0-11.894-9.676-21.57-21.57-21.57s-21.57 9.676-21.57 21.57V964.56h-0.002z" fill="#2D527C" p-id="1977"></path><path d="M807.056 992.82H707.4V505.736c0-27.52 22.31-49.828 49.828-49.828 27.52 0 49.828 22.31 49.828 49.828V992.82z" fill="#CEE8FA" p-id="1978"></path><path d="M807.056 1021.078H707.4c-15.608 0-28.258-12.652-28.258-28.258V505.736c0-43.058 35.03-78.086 78.086-78.086 43.058 0 78.086 35.03 78.086 78.086V992.82c0 15.606-12.652 28.258-28.258 28.258z m-71.398-56.516h43.14V505.736c0-11.894-9.676-21.57-21.57-21.57s-21.57 9.676-21.57 21.57v458.826z" fill="#2D527C" p-id="1979"></path><path d="M149.354 141.292H874.66v146.944H149.354z" fill="#CEE8FA" p-id="1980"></path><path d="M874.646 316.494H149.354c-15.608 0-28.258-12.652-28.258-28.258V141.292c0-15.608 12.652-28.258 28.258-28.258h725.292c15.608 0 28.258 12.652 28.258 28.258v146.944c0 15.606-12.65 28.258-28.258 28.258zM177.612 259.976h668.776V169.55H177.612v90.426z" fill="#2D527C" p-id="1981"></path><path d="M630.214 169.55c-15.608 0-28.258-12.652-28.258-28.258V56.516h-179.912v84.774c0 15.608-12.652 28.258-28.258 28.258s-28.258-12.652-28.258-28.258V28.258C365.528 12.652 378.178 0 393.786 0h236.428c15.608 0 28.258 12.652 28.258 28.258v113.034c0 15.606-12.65 28.258-28.258 28.258z" fill="#2D527C" p-id="1982"></path></svg>
