<?xml version="1.0" standalone="no"?><!DOCTYPE svg PUBLIC "-//W3C//DTD SVG 1.1//EN" "http://www.w3.org/Graphics/SVG/1.1/DTD/svg11.dtd"><svg t="1523244965150" class="icon" style="" viewBox="0 0 1024 1024" version="1.1" xmlns="http://www.w3.org/2000/svg" p-id="3592" xmlns:xlink="http://www.w3.org/1999/xlink" width="16" height="16"><defs><style type="text/css"></style></defs><path d="M892.963 831.757h-749.343c-30.316 0-55.484-24.595-55.484-55.484v-531.975c0-30.316 24.595-55.484 55.484-55.484h749.343c30.316 0 55.484 24.595 55.484 55.484v531.975c0 30.316-24.595 55.484-55.484 55.484zM144.765 775.129h747.054v-529.116h-747.054v529.116z" p-id="3593" fill="#4990EE"></path><path d="M517.149 526.299c-30.89 0-60.062-12.014-101.817-34.894l-311.177-157.306c-13.728-6.863-19.449-24.025-12.585-38.325 6.863-13.728 24.025-19.449 38.325-12.585l311.751 157.306c0 0 0.571 0 0.571 0.571 66.355 36.038 78.938 38.325 149.867 3.434l302.595-147.009c14.299-6.863 30.89-1.146 37.754 13.155 6.863 14.299 1.146 30.89-13.155 37.754l-302.595 147.009c-42.33 21.165-72.074 30.89-99.53 30.89z" p-id="3594" fill="#4990EE"></path></svg>
