<?xml version="1.0" standalone="no"?><!DOCTYPE svg PUBLIC "-//W3C//DTD SVG 1.1//EN" "http://www.w3.org/Graphics/SVG/1.1/DTD/svg11.dtd"><svg t="1523260587155" class="icon" style="" viewBox="0 0 1024 1024" version="1.1" xmlns="http://www.w3.org/2000/svg" p-id="5917" xmlns:xlink="http://www.w3.org/1999/xlink" width="16" height="16"><defs><style type="text/css"></style></defs><path d="M804.571429 1023.975619 219.428571 1023.975619C165.571048 1023.975619 121.904762 1004.714667 121.904762 950.832762L121.904762 536.356571C121.904762 482.499048 165.571048 438.832762 219.428571 438.832762L219.428571 438.832762 219.428571 292.547048 219.428571 292.547048C219.428571 130.974476 350.403048-0.024381 512-0.024381 673.572571-0.024381 804.571429 130.974476 804.571429 292.547048L804.571429 438.832762C858.428952 438.832762 902.095238 482.499048 902.095238 536.356571L902.095238 950.832762C902.095238 1004.714667 858.428952 1023.975619 804.571429 1023.975619ZM755.809524 292.547048 755.809524 292.547048C755.809524 292.547048 755.809524 292.547048 755.809524 292.547048 755.809524 157.891048 646.631619 48.737524 512 48.737524 377.344 48.737524 268.166095 157.891048 268.166095 292.547048 268.166095 292.547048 268.166095 292.547048 268.166095 292.547048L268.190476 292.547048 268.190476 438.832762 755.809524 438.832762 755.809524 292.547048ZM853.333333 536.356571C853.333333 509.44 831.488 487.594667 804.571429 487.594667L219.428571 487.594667C192.487619 487.594667 170.666667 509.44 170.666667 536.356571L170.666667 950.832762C170.666667 977.773714 192.487619 975.213714 219.428571 975.213714L804.571429 975.213714C831.488 975.213714 853.333333 977.773714 853.333333 950.832762L853.333333 536.356571ZM536.380952 801.109333 536.380952 877.714286C536.380952 891.172571 525.458286 902.095238 512 902.095238 498.541714 902.095238 487.619048 891.172571 487.619048 877.714286L487.619048 801.109333C445.635048 790.235429 414.47619 752.420571 414.47619 707.023238 414.47619 653.165714 458.142476 609.499429 512 609.499429 565.857524 609.499429 609.52381 653.165714 609.52381 707.023238 609.52381 752.420571 578.364952 790.235429 536.380952 801.109333ZM512 658.261333C485.059048 658.261333 463.238095 680.106667 463.238095 707.023238 463.238095 733.96419 485.059048 755.809524 512 755.809524 538.916571 755.809524 560.761905 733.96419 560.761905 707.023238 560.761905 680.106667 538.916571 658.261333 512 658.261333Z" p-id="5918" fill="#4990EE"></path></svg>
