<?xml version="1.0" standalone="no"?><!DOCTYPE svg PUBLIC "-//W3C//DTD SVG 1.1//EN" "http://www.w3.org/Graphics/SVG/1.1/DTD/svg11.dtd"><svg t="1523352320052" class="icon" style="" viewBox="0 0 1024 1024" version="1.1" xmlns="http://www.w3.org/2000/svg" p-id="14147" xmlns:xlink="http://www.w3.org/1999/xlink" width="20" height="20"><defs><style type="text/css"></style></defs><path d="M791.574 579.368l-68.67 118.942-68.67-118.942c-72.408 29.362-123.498 100.33-123.498 183.272v233.902h384.34V762.64c-0.002-82.94-51.092-153.91-123.502-183.272z" fill="#CEE8FA" p-id="14148"></path><path d="M915.074 1024H530.732c-15.164 0-27.456-12.294-27.456-27.456V762.642c0-92.148 55.204-174.072 140.638-208.718a27.454 27.454 0 0 1 34.094 11.716l44.894 77.758 44.894-77.758a27.46 27.46 0 0 1 34.096-11.716c85.436 34.642 140.638 116.57 140.638 208.718v233.902c0 15.162-12.292 27.456-27.456 27.456z m-356.886-54.912h329.426V762.642c0-61.674-32.714-117.298-85.034-147.432l-55.904 96.83a27.454 27.454 0 0 1-47.552 0l-55.904-96.83c-52.32 30.136-85.034 85.756-85.034 147.432v206.446h0.002zM722.902 542.168c-82.134 0-153.206-55.65-172.836-135.332-3.626-14.722 5.368-29.598 20.09-33.228 14.722-3.624 29.598 5.368 33.228 20.092 13.572 55.082 62.718 93.552 119.52 93.552 67.886 0 123.116-55.228 123.116-123.116s-55.23-123.116-123.116-123.116a122.66 122.66 0 0 0-66.09 19.274c-12.778 8.158-29.754 4.406-37.914-8.376-8.158-12.78-4.404-29.756 8.376-37.914a177.468 177.468 0 0 1 95.626-27.896c98.164 0 178.028 79.864 178.028 178.028s-79.864 178.032-178.028 178.032zM346.776 427.638c-117.9 0-213.818-95.918-213.818-213.818S228.876 0 346.776 0s213.818 95.92 213.818 213.82-95.918 213.818-213.818 213.818z m0-372.726c-87.62 0-158.904 71.288-158.904 158.908s71.284 158.904 158.904 158.904 158.904-71.284 158.904-158.904-71.284-158.908-158.904-158.908z" fill="#2D527C" p-id="14149"></path><path d="M431.77 480.204l-84.994 147.214-84.994-147.214c-89.62 36.338-152.854 124.182-152.854 226.836v289.5h475.7V707.044c-0.006-102.658-63.24-190.498-152.858-226.84z" fill="#CEE8FA" p-id="14150"></path><path d="M584.626 1024H108.926c-15.164 0-27.456-12.294-27.456-27.456v-289.5c0-111.382 66.726-210.41 169.992-252.284 12.696-5.142 27.244-0.152 34.094 11.718l61.216 106.03 61.216-106.03a27.454 27.454 0 0 1 34.096-11.718c103.268 41.874 169.994 140.9 169.994 252.284v289.5c0.004 15.162-12.288 27.456-27.452 27.456zM136.382 969.088h420.784V707.044c0-80.924-44.122-153.678-114.212-191.3l-72.404 125.406a27.454 27.454 0 0 1-47.554 0l-72.404-125.406c-70.088 37.624-114.212 110.376-114.212 191.3v262.044h0.002z" fill="#2D527C" p-id="14151"></path></svg>
