<?xml version="1.0" standalone="no"?><!DOCTYPE svg PUBLIC "-//W3C//DTD SVG 1.1//EN" "http://www.w3.org/Graphics/SVG/1.1/DTD/svg11.dtd"><svg t="1520842014336" class="icon" style="" viewBox="0 0 1024 1024" version="1.1" xmlns="http://www.w3.org/2000/svg" p-id="3244" xmlns:xlink="http://www.w3.org/1999/xlink" width="18" height="18"><defs><style type="text/css"></style></defs><path d="M510.545882 60.915371c-248.312412 0-449.610044 201.297632-449.610044 449.610044s201.297632 449.610044 449.610044 449.610044 449.610044-201.297632 449.610044-449.610044S758.859317 60.915371 510.545882 60.915371zM345.912287 830.487681c-52.782134 0-95.723132-42.942021-95.723132-95.724155L250.189156 287.072181c0-51.887764 45.24139-95.723132 98.79305-95.723132l317.814346 0c52.782134 0 95.724155 42.940998 95.724155 95.723132l0 233.200226c-9.461489-1.583055-19.172665-2.420119-29.077246-2.420119-11.889795 0-23.505343 1.194198-34.738176 3.456728L698.705286 287.072181c0-17.593703-14.314007-31.907711-31.908734-31.907711L348.982206 255.16447c-18.305925 0-34.977629 15.208377-34.977629 31.907711l0 447.690322c0 17.593703 14.314007 31.908734 31.907711 31.908734l227.873917 0c11.488659 24.967648 28.665877 46.793746 49.861618 63.815421L345.912287 830.486658zM634.07429 479.068983c0 17.549701-14.358009 31.907711-31.907711 31.907711L411.031401 510.976694c-17.549701 0-31.907711-14.358009-31.907711-31.907711l0 0c0-17.549701 14.358009-31.907711 31.907711-31.907711l191.135178 0C619.71628 447.161273 634.07429 461.519282 634.07429 479.068983L634.07429 479.068983zM634.07429 351.014492c0 17.549701-14.358009 31.907711-31.907711 31.907711L411.031401 382.922203c-17.549701 0-31.907711-14.358009-31.907711-31.907711l0 0c0-17.549701 14.358009-31.907711 31.907711-31.907711l191.135178 0C619.71628 319.106782 634.07429 333.464791 634.07429 351.014492L634.07429 351.014492zM794.70778 714.493877l-31.460526 0.002047 0 88.267323c0 14.389732-11.665691 26.055422-26.055422 26.055422l-5.279237 0c-14.389732 0-26.055422-11.665691-26.055422-26.055422L705.857173 714.495924l-33.015951-0.002047c-21.88545-0.001023-34.018791-25.351388-20.292162-42.397622l61.223387-76.025511c10.461259-12.989849 30.263258-12.9438 40.662095 0.095167l60.640102 76.025511C828.688709 689.256076 816.537971 714.491831 794.70778 714.493877z" p-id="3245" fill="#1296db"></path></svg>