<?xml version="1.0" standalone="no"?><!DOCTYPE svg PUBLIC "-//W3C//DTD SVG 1.1//EN" "http://www.w3.org/Graphics/SVG/1.1/DTD/svg11.dtd"><svg t="1523349216253" class="icon" style="" viewBox="0 0 1024 1024" version="1.1" xmlns="http://www.w3.org/2000/svg" p-id="21420" xmlns:xlink="http://www.w3.org/1999/xlink" width="20" height="20"><defs><style type="text/css"></style></defs><path d="M684.24 990.996H89.146C39.992 990.996 0 951.008 0 901.854V122.144c0-49.154 39.992-89.142 89.146-89.142H684.24c49.154 0 89.142 39.99 89.142 89.142V379.36c0 16.776-13.6 30.376-30.376 30.376s-30.376-13.6-30.376-30.376V122.144c0-15.656-12.736-28.392-28.392-28.392H89.146c-15.656 0-28.394 12.736-28.394 28.392v779.706c0 15.656 12.736 28.392 28.394 28.392H684.24c15.656 0 28.392-12.736 28.392-28.392v-101.278c0-16.776 13.6-30.376 30.376-30.376s30.376 13.598 30.376 30.376v101.278c-0.002 49.158-39.99 89.146-89.144 89.146z" fill="#2D527C" p-id="21421"></path><path d="M215.072 197.108h343.24v123.528h-343.24z" fill="#CEE8FA" p-id="21422"></path><path d="M558.31 351.01H215.072c-16.776 0-30.376-13.598-30.376-30.376V197.112c0-16.776 13.6-30.376 30.376-30.376h343.238c16.776 0 30.376 13.6 30.376 30.376v123.528c0 16.772-13.6 30.37-30.376 30.37zM245.448 290.26h282.488v-62.774H245.448v62.774zM993.624 351.408a30.268 30.268 0 0 1-21.478-8.896l-78.59-78.59-61.652 61.652c-11.858 11.862-31.092 11.864-42.956 0-11.862-11.862-11.862-31.096 0-42.956l83.132-83.132c11.862-11.858 31.092-11.862 42.956 0l100.068 100.068c11.862 11.862 11.862 31.096 0 42.96a30.282 30.282 0 0 1-21.48 8.894z" fill="#2D527C" p-id="21423"></path><path d="M810.426 304.096l-382.9 382.898-15.972 116.04 116.04-15.97 382.9-382.9z" fill="#CEE8FA" p-id="21424"></path><path d="M411.554 833.41a30.376 30.376 0 0 1-30.09-34.518l15.972-116.04a30.37 30.37 0 0 1 8.612-17.338l382.898-382.898a30.374 30.374 0 0 1 42.956 0l100.068 100.068c11.862 11.862 11.862 31.096 0 42.956L549.074 808.544a30.37 30.37 0 0 1-17.338 8.612l-116.036 15.972c-1.386 0.188-2.77 0.282-4.146 0.282z m44.67-132.158l-9.116 66.228 66.224-9.116 354.2-354.2-57.112-57.112-354.196 354.2z" fill="#2D527C" p-id="21425"></path><path d="M411.554 833.41h-196.482c-16.776 0-30.376-13.598-30.376-30.376s13.6-30.376 30.376-30.376h196.482c16.776 0 30.376 13.598 30.376 30.376s-13.598 30.376-30.376 30.376z" fill="#2D527C" p-id="21426"></path></svg>
