<?xml version="1.0" standalone="no"?><!DOCTYPE svg PUBLIC "-//W3C//DTD SVG 1.1//EN" "http://www.w3.org/Graphics/SVG/1.1/DTD/svg11.dtd"><svg t="1523328793277" class="icon" style="" viewBox="0 0 1024 1024" version="1.1" xmlns="http://www.w3.org/2000/svg" p-id="16467" xmlns:xlink="http://www.w3.org/1999/xlink" width="32" height="32"><defs><style type="text/css"></style></defs><path d="M204.748 958.97C91.852 958.97 0 867.12 0 754.22c0-112.896 91.852-204.748 204.748-204.748 72.25 0 139.916 38.724 176.586 101.064 8.15 13.858 3.524 31.698-10.33 39.846-13.858 8.154-31.696 3.524-39.846-10.33-26.258-44.636-74.696-72.364-126.412-72.364-80.8 0-146.534 65.734-146.534 146.534s65.734 146.536 146.534 146.536c50.808 0 97.268-25.746 124.284-68.862 8.538-13.626 26.5-17.746 40.118-9.216 13.622 8.538 17.746 26.5 9.212 40.118-37.724 60.22-102.628 96.172-173.612 96.172zM994.892 719.512H508.648c-16.076 0-29.108-13.034-29.108-29.108s13.032-29.108 29.108-29.108h486.244c16.074 0 29.108 13.034 29.108 29.108s-13.034 29.108-29.108 29.108zM812.552 847.146H508.648c-16.076 0-29.108-13.034-29.108-29.108s13.032-29.108 29.108-29.108h303.902c16.074 0 29.108 13.034 29.108 29.108s-13.03 29.108-29.106 29.108z" fill="#2D527C" p-id="16468"></path><path d="M204.742 269.768m-175.634 0a175.634 175.634 0 1 0 351.268 0 175.634 175.634 0 1 0-351.268 0Z" fill="#CEE8FA" p-id="16469"></path><path d="M204.748 474.526C91.848 474.526 0 382.676 0 269.78 0 156.88 91.848 65.03 204.748 65.03S409.496 156.88 409.496 269.78c0.004 112.896-91.848 204.746-204.748 204.746z m0-351.282c-80.8 0-146.534 65.736-146.534 146.536s65.734 146.534 146.534 146.534 146.534-65.734 146.534-146.534-65.734-146.536-146.534-146.536zM994.892 235.07H508.648c-16.076 0-29.108-13.034-29.108-29.108s13.032-29.108 29.108-29.108h486.244c16.074 0 29.108 13.034 29.108 29.108s-13.034 29.108-29.108 29.108zM812.552 362.7H508.648c-16.076 0-29.108-13.034-29.108-29.108s13.032-29.108 29.108-29.108h303.902c16.074 0 29.108 13.034 29.108 29.108s-13.03 29.108-29.106 29.108z" fill="#2D527C" p-id="16470"></path></svg>
