<?xml version="1.0" standalone="no"?><!DOCTYPE svg PUBLIC "-//W3C//DTD SVG 1.1//EN" "http://www.w3.org/Graphics/SVG/1.1/DTD/svg11.dtd"><svg t="1523351673090" class="icon" style="" viewBox="0 0 1024 1024" version="1.1" xmlns="http://www.w3.org/2000/svg" p-id="12363" xmlns:xlink="http://www.w3.org/1999/xlink" width="64" height="64"><defs><style type="text/css"></style></defs><path d="M142.113671 390.553989h739.25022v303.014224H142.113671z" fill="#FFFFFF" p-id="12364"></path><path d="M803.583274 710.537009c-27.605641 2.779372-55.211281 5.684129-82.419869 11.138385l-122.375952 24.471011a31.93143 31.93143 0 0 1-38.200689-31.304504v-182.163792c0-15.714945 11.34736-29.110263 26.895124-31.450787 0 0 150.462235-7.690292 224.982837-229.162344C733.283974 194.347054 624.909369 146.303626 505.208302 146.303626 390.585335 146.303626 286.557417 190.606396 208.379747 262.577498c73.329442 230.813249 228.138365 238.628926 228.138365 238.628926a31.68066 31.68066 0 0 1 26.895124 31.450787v182.163793c0 20.145222-18.431624 35.254138-38.200689 31.304504l-122.375952-24.471011c-27.208588-5.433359-54.814228-8.338116-82.419869-11.138385-91.489398-9.236709-136.084733-67.603518-152.949042-147.11863-0.355258 7.272341-1.107569 14.419298-1.107569 21.754331 0 242.369584 196.478602 438.848187 438.848187 438.848187 234.386727 0 425.285688-183.898288 437.657027-415.19218-23.049979 55.712822-66.266076 94.35236-139.282055 101.729189z" fill="#FBD971" p-id="12365"></path><path d="M735.081162 815.547111v128.624314c0 6.311055 6.52003 10.511459 12.183261 7.71119 36.090039-17.950981 142.625661-100.747005 186.719455-263.350707 3.970531-14.64917 1.003082-12.308647-10.824922-2.80027l-184.441624 122.835697a8.505296 8.505296 0 0 0-3.63617 6.979776zM275.335442 815.547111v128.624314a8.463501 8.463501 0 0 1-12.183261 7.71119c-36.090039-17.950981-142.625661-100.747005-186.719455-263.350707-3.970531-14.64917-1.003082-12.308647 10.824922-2.80027l184.441623 122.835697a8.505296 8.505296 0 0 1 3.636171 6.979776z" fill="#AF8066" p-id="12366"></path><path d="M602.381829 919.512336h-167.180262a20.897533 20.897533 0 1 1 0-41.795065h167.180262a20.897533 20.897533 0 1 1 0 41.795065zM513.316545 827.207935h-0.250771a20.897533 20.897533 0 0 1-16.634436-8.588886l-54.584355-74.87586a20.83484 20.83484 0 0 1 4.576559-29.172956 20.813943 20.813943 0 0 1 29.172956 4.57656l38.137997 52.285627 37.594662-48.983817a20.876635 20.876635 0 1 1 33.143486 25.4114l-54.584355 71.156099a20.897533 20.897533 0 0 1-16.571743 8.191833z" fill="#F0C419" p-id="12367"></path><path d="M436.518112 501.206424S178.684353 488.500724 170.847779 0.020898c0 0-281.928614 677.08006 49.568947 710.516111 27.605641 2.779372 55.211281 5.684129 82.419869 11.138385l122.375952 24.471011a31.93143 31.93143 0 0 0 38.200689-31.304504v-182.163792c0-15.735842-11.326463-29.131161-26.895124-31.471685z m-57.217445 119.4294l-31.534377 52.787167-158.904838-141.246423L400.720638 585.151813l-21.419971 35.484011zM853.152221 0.020898c-7.836575 488.479827-265.670333 501.185527-265.670333 501.185526a31.68066 31.68066 0 0 0-26.895124 31.450787v182.163793c0 20.145222 18.431624 35.254138 38.200689 31.304504l122.375952-24.471011c27.208588-5.433359 54.814228-8.338116 82.419869-11.138385C1135.059938 677.100957 853.152221 0.020898 853.152221 0.020898z m-176.918511 673.402093l-31.534377-52.787167L623.279362 585.151813l211.880084-52.975245-158.925736 141.246423z" fill="#556080" p-id="12368"></path></svg>
