<?xml version="1.0" standalone="no"?><!DOCTYPE svg PUBLIC "-//W3C//DTD SVG 1.1//EN" "http://www.w3.org/Graphics/SVG/1.1/DTD/svg11.dtd"><svg t="1523418601827" class="icon" style="" viewBox="0 0 1024 1024" version="1.1" xmlns="http://www.w3.org/2000/svg" p-id="16985" xmlns:xlink="http://www.w3.org/1999/xlink" width="20" height="20"><defs><style type="text/css"></style></defs><path d="M216.598 483.368V878.34c0 64.64 52.4 117.04 117.04 117.04H690.36c64.64 0 117.04-52.4 117.04-117.04V483.368H216.598z m295.4 332.334c-52.692 0-95.404-42.716-95.404-95.404 0-52.692 42.716-95.404 95.404-95.404s95.404 42.716 95.404 95.404c0.002 52.69-42.714 95.404-95.404 95.404z" fill="#CEE8FA" p-id="16986"></path><path d="M690.36 1024H333.638c-80.314 0-145.656-65.344-145.656-145.658V483.368c0-15.806 12.816-28.618 28.618-28.618h590.8c15.804 0 28.618 12.812 28.618 28.618V878.34c-0.002 80.318-65.344 145.66-145.658 145.66zM245.216 511.988v366.354c0 48.756 39.664 88.422 88.42 88.422h356.722c48.754 0 88.42-39.664 88.42-88.422V511.988H245.216zM511.998 844.32c-68.386 0-124.026-55.636-124.026-124.024s55.636-124.024 124.026-124.024 124.026 55.636 124.026 124.024-55.64 124.024-124.026 124.024z m0-190.81c-36.826 0-66.79 29.96-66.79 66.786s29.964 66.786 66.79 66.786 66.79-29.96 66.79-66.786-29.964-66.786-66.79-66.786z" fill="#2D527C" p-id="16987"></path><path d="M278.252 511.988c-15.804 0-28.618-12.812-28.618-28.618V248.044C249.634 111.27 360.906 0 497.678 0h28.642c136.772 0 248.044 111.27 248.044 248.044 0 15.806-12.816 28.618-28.618 28.618s-28.618-12.812-28.618-28.618c0-105.212-85.594-190.806-190.806-190.806H497.68c-105.212 0-190.806 85.594-190.806 190.806v235.326c-0.002 15.804-12.818 28.618-28.622 28.618z" fill="#2D527C" p-id="16988"></path><path d="M325.09 469.076H228.74c-15.804 0-28.618-12.812-28.618-28.618s12.816-28.618 28.618-28.618h96.35c15.804 0 28.618 12.812 28.618 28.618s-12.812 28.618-28.618 28.618zM795.254 469.076h-96.35c-15.804 0-28.618-12.812-28.618-28.618s12.816-28.618 28.618-28.618h96.35c15.804 0 28.618 12.812 28.618 28.618s-12.812 28.618-28.618 28.618z" fill="#2D527C" p-id="16989"></path></svg>
